<svg xmlns="http://www.w3.org/2000/svg" width="3000" height="640" viewBox="0 0 3000 640" version="1.1"><path d="M 422.684 5 C 422.339 8.025, 421.789 14.550, 421.463 19.500 C 415.656 107.683, 393.771 186.430, 357.958 248.013 C 325.206 304.331, 290.605 343.197, 187.482 439.498 C 157.518 467.479, 139.172 485.146, 142 483.294 C 142.825 482.753, 148.225 478.713, 154 474.314 C 164.710 466.156, 198.643 441.874, 239 413.489 C 358.237 329.623, 408.266 277.241, 450.058 192.500 L 458.935 174.500 456.467 154.564 C 448.244 88.150, 424.960 -14.934, 422.684 5 M 323.500 110.842 C 319.100 113.950, 306.275 121.981, 295 128.687 C 283.725 135.394, 273.746 141.471, 272.825 142.191 C 271.564 143.177, 270.633 147.535, 269.052 159.865 C 260.306 228.049, 239.159 287.848, 201.458 351 C 184.846 378.827, 167.074 404.508, 124.988 461.500 C 96.029 500.716, 73.659 531.993, 74.191 532.524 C 74.409 532.743, 76.589 530.351, 79.036 527.211 C 93.997 508.001, 122.125 475.537, 158.498 435.500 C 200.017 389.798, 219.460 367.078, 237.685 342.967 C 289.561 274.335, 317.694 207.531, 330.985 121.416 C 333.977 102.035, 334.640 102.972, 323.500 110.842 M 617 322.500 L 617 483 622.500 483 L 628 483 628 322.500 L 628 162 622.500 162 L 617 162 617 322.500 M 680 319.500 L 680 477 686.500 477 L 693 477 693.018 341.750 L 693.037 206.500 698.346 218.500 C 710.674 246.362, 712.591 248.961, 720.823 248.982 C 726.702 248.996, 728.083 248.715, 727.823 247.553 C 726.723 242.628, 683.310 162.030, 681.750 162.016 C 680.091 162.001, 680 170.161, 680 319.500 M 938.173 163.026 C 905.522 167.513, 886.958 191.875, 888.281 228.500 C 889.379 258.897, 896.930 269.758, 954 323.040 C 996.979 363.165, 1012.013 398.947, 999.466 431.250 C 998.853 432.828, 999.576 433, 1006.822 433 C 1016.678 433, 1017.573 430.753, 1017.381 406.500 C 1017.081 368.675, 1007.056 352.973, 946.276 295.122 C 905.378 256.195, 896.926 239.136, 903.913 209.615 C 911.956 175.628, 953.177 164.847, 984.566 188.521 L 992.913 194.817 997.523 189.421 C 1002.830 183.209, 1002.925 183.617, 994.738 177.462 C 978.707 165.411, 958.446 160.240, 938.173 163.026 M 1070 277.380 C 1070 396.382, 1070.124 400.544, 1074.150 416.500 C 1082.190 448.367, 1104.945 471.677, 1135.621 479.469 C 1143.014 481.347, 1155.089 483.063, 1156.177 482.391 C 1156.962 481.905, 1157.399 470, 1156.631 470 C 1132.154 470, 1102.076 449.426, 1091.388 425.371 C 1083.196 406.934, 1083.571 413.373, 1083.008 281.500 L 1082.500 162.500 1076.250 162.202 L 1070 161.905 1070 277.380 M 1247.713 162.621 C 1247.321 163.013, 1246.997 214.221, 1246.994 276.417 C 1246.987 407.550, 1247.011 407.180, 1237.267 426.478 C 1225.915 448.959, 1196.257 469, 1174.340 469 C 1171 469, 1171 469, 1171 476.012 C 1171 483.858, 1170.088 483.542, 1185 480.861 C 1216.562 475.186, 1240.946 453.861, 1251.288 422.890 C 1257.587 404.027, 1257.500 406.059, 1257.500 278.500 L 1257.500 162.500 1252.963 162.204 C 1250.467 162.041, 1248.105 162.229, 1247.713 162.621 M 1310 226.879 L 1310 292 1317 292 L 1324 292 1324 233.864 L 1324 175.727 1341.250 176.301 C 1401.617 178.309, 1435.293 212.594, 1437.726 274.519 C 1440.571 346.947, 1405.389 383.867, 1331.750 385.728 L 1310 386.278 1310 393.265 L 1310 400.252 1333.250 399.720 C 1358.388 399.145, 1364.816 398.374, 1378.257 394.321 C 1383.073 392.869, 1387.167 391.865, 1387.354 392.090 C 1387.542 392.316, 1398.895 412.863, 1412.585 437.750 L 1437.475 483 1445.737 483 C 1455.898 483, 1458.353 489.601, 1428.137 435.666 C 1413.912 410.275, 1401.776 388.543, 1401.167 387.373 C 1400.160 385.436, 1400.617 384.904, 1406.281 381.412 C 1457.346 349.931, 1469.859 256.057, 1430.034 203.206 C 1408.164 174.182, 1382.847 163.309, 1334.750 162.284 L 1310 161.757 1310 226.879 M 1506 263 L 1506 364 1512 364 L 1518 364 1518 269 L 1518 174 1567 174 L 1616 174 1616 168 L 1616 162 1561 162 L 1506 162 1506 263 M 1672 168.879 L 1672 176 1692.250 176.004 C 1764.328 176.018, 1798.978 210.301, 1798.996 281.619 C 1799.014 354.432, 1763.687 386.725, 1683.750 386.965 L 1672 387 1672 435 L 1672 483 1679.500 483 L 1687 483 1687 442.156 L 1687 401.313 1702.976 400.654 C 1775.230 397.675, 1814.385 355.798, 1814.385 281.500 C 1814.385 204.668, 1774.191 163.934, 1696.750 162.284 L 1672 161.757 1672 168.879 M 1867.243 226.628 L 1867.500 291.500 1874.250 291.796 L 1881 292.091 1881 234.046 L 1881 176 1893.750 176.006 C 1958.273 176.036, 1995.097 214.235, 1994.963 281 C 1994.822 351.870, 1958.194 386, 1882.281 386 L 1866.909 386 1867.204 392.750 L 1867.500 399.500 1890.500 399.413 C 1914.664 399.322, 1924.344 398.182, 1936.519 393.994 C 1939.706 392.897, 1942.805 392.005, 1943.407 392.010 C 1944.008 392.016, 1955.750 412.485, 1969.500 437.498 L 1994.500 482.976 2002.750 482.988 C 2012.968 483.003, 2015.409 489.450, 1984.032 433.550 L 1957.117 385.600 1963.571 381.271 C 2028.275 337.865, 2026.166 218.898, 1959.970 178.161 C 1941.293 166.667, 1925.530 162.998, 1891.743 162.282 L 1866.985 161.757 1867.243 226.628 M 2063 263 L 2063 364 2069 364 L 2075 364 2075 269 L 2075 174 2124 174 L 2173 174 2173 168 L 2173 162 2118 162 L 2063 162 2063 263 M 2452 322.500 L 2452 483 2457.500 483 L 2463 483 2463 322.500 L 2463 162 2457.500 162 L 2452 162 2452 322.500 M 2848 168.992 L 2848 176 2881.997 176 L 2915.994 176 2916.247 329.250 L 2916.500 482.500 2923.750 482.794 L 2931 483.088 2931 329.544 L 2931 176 2949.412 176 L 2967.824 176 2967.662 169.250 L 2967.500 162.500 2907.750 162.242 L 2848 161.984 2848 168.992 M 2977 169 L 2977 176 2988.500 176 L 3000 176 3000 169 L 3000 162 2988.500 162 L 2977 162 2977 169 M 2229 323.015 L 2229 483.262 2256.250 482.691 C 2280.999 482.174, 2296.695 480.638, 2298.805 478.529 C 2299.550 477.784, 2297.036 467.140, 2295.957 466.474 C 2295.459 466.165, 2291.390 466.608, 2286.915 467.457 C 2281.431 468.497, 2272.784 469, 2260.390 469 L 2242 469 2242 323 L 2242 177 2260.369 177 C 2304.832 177, 2334.704 191.313, 2359.206 224.359 C 2409.803 292.599, 2386.010 422.933, 2316.614 457.673 C 2312.701 459.632, 2309.382 461.338, 2309.237 461.464 C 2309.092 461.590, 2309.708 463.450, 2310.606 465.596 C 2311.503 467.743, 2312.632 470.535, 2313.113 471.800 C 2315.018 476.805, 2340.693 460.019, 2354.190 444.944 C 2452.371 335.285, 2393.123 165.743, 2255.750 163.253 L 2229 162.768 2229 323.015 M 2654.616 164.098 C 2472.211 183.336, 2469.271 460.533, 2651.250 481.482 C 2657 482.144, 2657 482.144, 2657 478.197 C 2657 476.026, 2657.266 472.921, 2657.591 471.296 C 2658.181 468.343, 2658.181 468.343, 2648.841 467.191 C 2515.109 450.697, 2483.922 255.448, 2604.836 191.696 C 2663.646 160.688, 2743.652 177.805, 2780.359 229.250 C 2786.040 237.212, 2785.029 236.943, 2791.104 232.106 L 2795.994 228.212 2791.338 221.856 C 2760.057 179.154, 2710.472 158.206, 2654.616 164.098 M 821.938 303.750 C 821.876 438.500, 821.876 438.500, 819.758 434 C 818.593 431.525, 814.046 421.962, 809.653 412.750 L 801.666 396 794.333 396 C 789.986 396, 787 396.418, 787 397.026 C 787 400.286, 831.359 483, 833.107 483 C 834.956 483, 835 479.370, 835 326 L 835 169 828.500 169 L 822 169 821.938 303.750 M 153.700 209.087 C 134.871 219.712, 111.712 236.130, 93.500 251.765 L 85.500 258.633 85.399 293.566 C 85.213 358.104, 78.254 402.450, 53.395 497.500 C 29.813 587.670, 30.707 583.792, 35.345 575.829 C 85.901 489.022, 133.866 382.363, 148.819 323.500 C 158.889 283.861, 168.583 203.629, 163.250 204.061 C 162.838 204.094, 158.540 206.356, 153.700 209.087 M 450 340.089 C 403.464 383.534, 367.524 406.376, 259 461.479 C 149.559 517.048, 113.544 538.612, 72.425 573.194 C 62.930 581.180, 63.558 581.422, 75.648 574.432 C 122.503 547.339, 167.181 530.055, 270.957 498.875 C 352.533 474.365, 394.326 459.376, 428.980 442.199 C 438.460 437.500, 438.460 437.500, 441.733 425 C 450.778 390.450, 461.006 332.809, 458.048 333.044 C 457.747 333.067, 454.125 336.238, 450 340.089 M 17.683 362.910 C -3.298 419.250, -5.734 491.596, 10.592 573.500 C 12.565 583.400, 14.327 591.650, 14.507 591.834 C 15.300 592.643, 19.557 517.388, 22.162 456.500 C 23.251 431.073, 22.614 366.992, 21.198 359.500 C 20.443 355.500, 20.443 355.500, 17.683 362.910 M 1506 429.500 L 1506 483 1563 483 L 1620 483 1620 477 L 1620 471 1569 471 L 1518 471 1518 429.540 L 1518 388.081 1526.250 387.790 C 1534.500 387.500, 1534.500 387.500, 1534.800 381.750 L 1535.100 376 1520.550 376 L 1506 376 1506 429.500 M 2063 429.500 L 2063 483 2120 483 L 2177 483 2177 477 L 2177 471 2126 471 L 2075 471 2075 429.500 L 2075 388 2083.500 388 C 2092 388, 2092 388, 2092 382 L 2092 376 2077.500 376 L 2063 376 2063 429.500 M 2782.548 415.931 C 2764.327 442.224, 2723.670 464.641, 2688.500 467.785 C 2684.100 468.178, 2680.613 468.837, 2680.750 469.250 C 2680.887 469.663, 2681 472.762, 2681 476.138 C 2681 495.702, 2751.415 468.194, 2781.539 436.862 C 2796.638 421.158, 2796.790 420.833, 2791.263 416.096 C 2785.461 411.122, 2785.875 411.130, 2782.548 415.931 M 988.619 451.551 C 977.138 465.286, 948.217 472.599, 929.221 466.570 C 927.061 465.885, 927 466.071, 927 473.387 C 927 482.478, 927.185 482.559, 947.500 482.344 C 975.114 482.052, 1009 463.066, 1009 447.886 C 1009 444.181, 992.264 447.191, 988.619 451.551 M 366 547.071 C 358.575 548.056, 330.225 551.154, 303 553.954 C 181.412 566.459, 130.878 575.749, 73.650 596.116 C 59.112 601.290, 59.392 601.566, 77.175 599.597 C 132.233 593.504, 181.830 594.627, 276.248 604.106 C 311.037 607.599, 307.506 608.240, 327.064 594.884 C 347.041 581.243, 386.724 544.473, 380.750 545.139 C 380.063 545.216, 373.425 546.085, 366 547.071 M 49 615.981 C 26.187 618.581, 23.052 620.907, 37.725 624.347 C 95.615 637.922, 153.177 642.997, 197.241 638.412 C 217.554 636.299, 217.624 636.063, 199.453 631.029 C 159.274 619.901, 82.226 612.195, 49 615.981" stroke="none" fill="#fcfcfc" fill-rule="evenodd"/></svg>