<?xml version="1.0" encoding="UTF-8"?>
<svg version="1.1" xmlns="http://www.w3.org/2000/svg" width="478" height="640">
<path d="M0 0 C2.4585018 2.4585018 2.87648128 4.30868318 3.8828125 7.6328125 C4.24133301 8.81447998 4.59985352 9.99614746 4.96923828 11.21362305 C5.35543816 12.51713547 5.74066355 13.82093694 6.125 15.125 C6.32252869 15.79036774 6.52005737 16.45573547 6.72357178 17.14126587 C20.27884138 62.92177006 28.67749432 109.70625467 34.4375 157.0625 C34.52744232 157.78414337 34.61738464 158.50578674 34.71005249 159.2492981 C34.96078063 161.28108885 35.19934432 163.31390747 35.43359375 165.34765625 C35.56822021 166.49242432 35.70284668 167.63719238 35.84155273 168.81665039 C36.09954255 173.99990026 35.16603358 178.14513278 32.953125 182.80859375 C32.52741211 183.70827881 32.10169922 184.60796387 31.66308594 185.53491211 C30.9636084 186.97169312 30.9636084 186.97169312 30.25 188.4375 C29.76047852 189.4488501 29.27095703 190.4602002 28.76660156 191.50219727 C16.60421019 216.28546764 2.34230332 240.54707674 -14.68603516 262.30517578 C-16.69455709 264.89587799 -18.62166415 267.54590218 -20.5625 270.1875 C-27.44244114 279.35660781 -34.97850547 287.98973823 -42.69555664 296.46020508 C-44.14695456 298.05983349 -45.59107428 299.66612567 -47.0246582 301.28173828 C-52.66545395 307.63134238 -58.5446814 313.69582688 -64.5625 319.6875 C-65.45646484 320.58533203 -66.35042969 321.48316406 -67.27148438 322.40820312 C-72.35320939 327.48249328 -77.54841805 332.32821408 -83 337 C-84.60768373 338.45445517 -86.21239715 339.91220895 -87.8125 341.375 C-92.07745308 345.21928245 -96.4486085 348.89526905 -100.9140625 352.50390625 C-103.14939817 354.31198156 -105.37188205 356.13112763 -107.5859375 357.96484375 C-117.0014974 365.73522137 -126.69626009 373.04592444 -136.56787109 380.22509766 C-138.99703828 381.99783862 -141.41613054 383.78344886 -143.83203125 385.57421875 C-153.43872027 392.69451657 -163.12663843 399.68056669 -172.92041016 406.54101562 C-175.69132875 408.48501768 -178.45474012 410.43954669 -181.21826172 412.39404297 C-188.13149903 417.28279297 -195.06135162 422.14739441 -202 427 C-228.99929935 445.88840935 -255.67794999 465.17677337 -282 485 C-282 482 -282 482 -279.31640625 479.20703125 C-278.07223967 478.06767958 -276.82029965 476.93678322 -275.5625 475.8125 C-274.1778446 474.5487694 -272.79375113 473.28442288 -271.41015625 472.01953125 C-270.32178467 471.03073975 -270.32178467 471.03073975 -269.21142578 470.02197266 C-265.60243123 466.72216113 -262.05352405 463.35930228 -258.5 460 C-251.30069214 453.21492347 -244.07546423 446.45811933 -236.83837891 439.71337891 C-227.30528481 430.82848457 -217.7787164 421.93664116 -208.28100586 413.01391602 C-205.64596318 410.54001381 -203.00429009 408.07372952 -200.35351562 405.61669922 C-188.49657924 394.59012414 -177.02935844 383.1843674 -165.59423828 371.72460938 C-162.88942058 369.01402974 -160.18004478 366.3080571 -157.46938133 363.60332489 C-155.34672225 361.48429823 -153.22647337 359.36287279 -151.10692215 357.24073792 C-150.10865898 356.24181627 -149.10967653 355.24361281 -148.10990524 354.24620056 C-143.03868736 349.18435506 -138.06705344 344.09346171 -133.40856934 338.64668274 C-131.37563407 336.27008733 -129.24697955 333.984525 -127.125 331.6875 C-123.08597847 327.25368689 -119.22493122 322.71945416 -115.4609375 318.05078125 C-113.66719764 315.82711326 -111.86127617 313.61801522 -110.0390625 311.41796875 C-86.69834466 283.14868992 -67.5167242 252.68139394 -51 220 C-50.62101563 219.25282715 -50.24203125 218.5056543 -49.8515625 217.73583984 C-18.6547322 155.65004271 -6.87946975 84.18806363 -1.8996582 15.52441406 C-1.84491837 14.77788071 -1.79017853 14.03134735 -1.73377991 13.26219177 C-1.58819638 11.25232276 -1.44865842 9.24201841 -1.30957031 7.23168945 C-1.0658695 4.68762976 -0.72714089 2.43821821 0 0 Z " fill="#FEFEFE" transform="translate(423,0)"/>
<path d="M0 0 C-1.84831014 29.22242064 -7.58889827 57.98095533 -15.04785156 86.25195312 C-15.71401081 88.87422921 -16.31203731 91.46068852 -16.85058594 94.10742188 C-18.93100618 103.834096 -18.93100618 103.834096 -21.75048828 106.90917969 C-23.78710966 108.21122481 -25.75123389 109.12112444 -28 110 C-29.27459224 110.65945161 -30.54545938 111.32615293 -31.8125 112 C-33.20434597 112.67495181 -34.60048427 113.34109874 -36 114 C-36.79414307 114.37390869 -37.58828613 114.74781738 -38.40649414 115.13305664 C-60.70269022 125.43523696 -83.78643439 134.02991625 -107 142 C-108.22219238 142.42506836 -109.44438477 142.85013672 -110.70361328 143.28808594 C-137.74572574 152.68640684 -165.19745014 160.7669147 -192.6150589 168.98179626 C-242.63670935 183.97049429 -292.46840476 199.14038537 -340 221 C-341.01191406 221.46341797 -342.02382813 221.92683594 -343.06640625 222.40429688 C-356.86733459 228.76389028 -370.2370973 235.71114158 -383.40771484 243.27636719 C-384.48746582 243.89157227 -385.5672168 244.50677734 -386.6796875 245.140625 C-387.63601074 245.69266602 -388.59233398 246.24470703 -389.57763672 246.81347656 C-392 248 -392 248 -395 248 C-386.88480467 240.19219843 -378.34313752 233.28998779 -369.24804688 226.65722656 C-366.57277798 224.68505831 -363.92951099 222.67234152 -361.28125 220.6640625 C-355.15508283 216.06655828 -348.87809823 211.73920353 -342.5 207.5 C-341.9278476 207.11937408 -341.35569519 206.73874817 -340.76620483 206.34658813 C-320.90768545 193.16105447 -300.52956636 180.9830263 -279.44555664 169.85058594 C-276.91378906 168.49079013 -274.40185135 167.11040758 -271.89624023 165.70410156 C-252.85494636 155.07415789 -233.25321518 145.53038175 -213.73052979 135.82574463 C-206.02925581 131.99693455 -198.33079374 128.16248731 -190.63367271 124.32533646 C-187.99024089 123.00861161 -185.34541292 121.69472748 -182.70039368 120.38119507 C-171.37968901 114.74899973 -160.16376522 108.93688095 -149 103 C-147.84459213 102.38642136 -146.68918427 101.77284271 -145.49876404 101.14067078 C-123.82590711 89.60899202 -102.59697456 77.36419437 -82 64 C-81.34773438 63.57799316 -80.69546875 63.15598633 -80.0234375 62.72119141 C-64.26585305 52.48767784 -49.19071828 41.4319055 -34.73535156 29.43115234 C-33.19839635 28.16361837 -31.64341834 26.91800793 -30.0859375 25.67578125 C-20.97496928 18.40581989 -12.26090305 10.4844809 -4.1796875 2.078125 C-2 0 -2 0 0 0 Z " fill="#FEFEFE" transform="translate(459,332)"/>
<path d="M0 0 C1.44439671 52.77603355 -8.52957584 105.02418856 -25 155 C-25.35288086 156.08700195 -25.70576172 157.17400391 -26.06933594 158.29394531 C-32.04652416 176.62658877 -39.28187373 194.34784172 -47 212 C-47.27332153 212.6267865 -47.54664307 213.253573 -47.82824707 213.89935303 C-56.24662407 233.17863089 -65.37591332 252.10755799 -74.625 271 C-75.40055237 272.5860907 -75.40055237 272.5860907 -76.19177246 274.20422363 C-86.6112624 295.48406945 -97.46122641 316.52131574 -108.875 337.28515625 C-111.16999078 341.46774738 -113.43536218 345.6652731 -115.6875 349.87109375 C-116.15622276 350.74594673 -116.15622276 350.74594673 -116.63441467 351.63847351 C-118.15718761 354.48116514 -119.67727265 357.32523641 -121.19311523 360.17163086 C-124.27262126 365.92156551 -127.46582049 371.5170673 -131 377 C-132.14267191 373.57198427 -131.82667202 372.46701891 -130.94287109 369.03686523 C-130.68395081 368.01534363 -130.42503052 366.99382202 -130.15826416 365.94134521 C-129.72027496 364.26688324 -129.72027496 364.26688324 -129.2734375 362.55859375 C-128.97435486 361.38903137 -128.67527222 360.21946899 -128.36712646 359.01446533 C-127.54834717 355.81966794 -126.72220381 352.62694622 -125.89279938 349.43490219 C-125.02503277 346.08750742 -124.16720869 342.73756589 -123.30810547 339.38793945 C-119.7691892 325.60657127 -116.17918136 311.83855717 -112.57867432 298.07316589 C-94.87581273 230.38899069 -79.12908574 162.4629427 -78.875 92.125 C-78.8651709 90.84044922 -78.8553418 89.55589844 -78.84521484 88.23242188 C-78.83692863 82.299495 -78.96928931 76.52962585 -79.75390625 70.64453125 C-81.43331338 57.46162604 -81.43331338 57.46162604 -78.84912109 53.0234375 C-75.53226731 49.09801593 -71.48887623 46.27981508 -67.21435547 43.47998047 C-64.27794215 41.51740742 -61.544441 39.33743851 -58.77807617 37.14477539 C-55.95055902 34.92020654 -53.06913764 32.77214798 -50.18261719 30.625 C-48.73423227 29.54664989 -47.2895189 28.46334973 -45.84863281 27.375 C-9.57346755 0 -9.57346755 0 0 0 Z " fill="#FEFEFE" transform="translate(164,204)"/>
<path d="M0 0 C-0.51489612 10.16969532 -1.81153747 20.05018379 -3.625 30.0625 C-3.75627289 30.79577515 -3.88754578 31.52905029 -4.02279663 32.2845459 C-18.78697532 114.33256981 -53.41128278 189.06879717 -106.60302734 253.30322266 C-108.47322439 255.5747832 -110.30011941 257.87945346 -112.125 260.1875 C-116.48167528 265.64701567 -121.00030095 270.96670611 -125.53369141 276.27929688 C-127.00942415 278.01105917 -128.4796012 279.74742194 -129.94921875 281.484375 C-135.91658967 288.51619587 -142.04306084 295.36446277 -148.328125 302.11328125 C-151.0009087 305.00098177 -153.59380248 307.94295907 -156.16796875 310.91796875 C-158.99864261 314.13491793 -161.90767016 317.2797068 -164.80834961 320.43334961 C-169.24236039 325.25602903 -173.62616078 330.12269727 -178 335 C-182.33389166 339.83275689 -186.67599599 344.6540306 -191.08984375 349.4140625 C-194.99515668 353.63309863 -198.77635529 357.8865805 -202.375 362.375 C-205.90719896 366.76809333 -209.63918969 370.89892943 -213.5 375 C-218.09129621 379.88162624 -222.44221448 384.86715252 -226.6328125 390.1015625 C-229.46985933 393.57530631 -232.41852063 396.94048752 -235.375 400.3125 C-240.19994279 405.82923631 -244.8126262 411.47033701 -249.3034668 417.26147461 C-252.42302631 421.2838343 -255.63567747 425.18103929 -259 429 C-259 425.5136449 -258.3722205 424.74271752 -256.39453125 421.96484375 C-255.82992187 421.1648999 -255.2653125 420.36495605 -254.68359375 419.54077148 C-254.06613281 418.68169189 -253.44867188 417.8226123 -252.8125 416.9375 C-251.86117187 415.59764038 -251.86117187 415.59764038 -250.890625 414.23071289 C-248.93484929 411.48149686 -246.96872066 408.73995663 -245 406 C-244.43458496 405.20980469 -243.86916992 404.41960937 -243.28662109 403.60546875 C-235.54820258 392.79269211 -227.66800005 382.08472378 -219.76611328 371.39111328 C-216.84043897 367.43008838 -213.92049694 363.46484283 -211 359.5 C-209.8333611 357.91664621 -208.66669442 356.33331288 -207.5 354.75 C-206.63375 353.574375 -206.63375 353.574375 -205.75 352.375 C-200.5 345.25 -200.5 345.25 -198.74975586 342.875 C-197.58348096 341.29197751 -196.41762785 339.70864418 -195.25219727 338.125 C-192.33292032 334.15925135 -189.4064571 330.19921538 -186.46484375 326.25 C-180.0440074 317.61373546 -173.79096271 308.89507039 -167.75585938 299.984375 C-164.70355226 295.47841127 -161.60340051 291.01548233 -158.43408203 286.59106445 C-151.55030432 276.97286607 -145.19071057 267.07602631 -139 257 C-138.505 256.19691406 -138.01 255.39382813 -137.5 254.56640625 C-107.47464592 205.69701484 -84.16248525 153.53667188 -71.82177734 97.34674072 C-71.52390772 95.99049799 -71.22198392 94.63513933 -70.91601562 93.28070068 C-68.98118107 84.63595253 -67.77696886 76.19512537 -67.21484375 67.3515625 C-65.2520738 39.96875175 -65.2520738 39.96875175 -59.35302734 33.85839844 C-53.59861683 28.91867034 -46.53870707 26.00848349 -39.5382843 23.2802124 C-33.11583997 20.77015209 -27.58786403 17.25157685 -21.875 13.4375 C-20.18496659 12.35275434 -18.49486577 11.2681137 -16.8046875 10.18359375 C-12.45901853 7.34631666 -8.23677142 4.3514332 -4.03564453 1.30493164 C-2 0 -2 0 0 0 Z " fill="#FEFEFE" transform="translate(333,105)"/>
<path d="M0 0 C-5.07477603 6.12328347 -10.56806894 11.75155219 -16.1875 17.375 C-17.06986328 18.26960937 -17.95222656 19.16421875 -18.86132812 20.0859375 C-24.92756282 26.1654269 -31.29791091 31.63859944 -38 37 C-39.04031523 37.88569577 -40.07567904 38.77731513 -41.1015625 39.6796875 C-48.58462277 46.18971826 -56.60021133 51.63953184 -65.06103516 56.79980469 C-66.30168096 57.56774913 -67.52313318 58.36820241 -68.71630859 59.20800781 C-76.79460145 64.58723936 -87.82696484 61.74914638 -96.93069458 60.7950325 C-99.10088218 60.56774425 -101.27163096 60.34671466 -103.44262695 60.12728882 C-106.55413899 59.81268863 -109.66545796 59.4962708 -112.77667236 59.17874146 C-175.02646204 52.84861966 -237.43393841 48.41874984 -299.91485596 54.44354248 C-307.2649828 55.14681117 -314.62888017 55.58331749 -322 56 C-318.74632914 53.83088609 -315.52278415 52.68552101 -311.8515625 51.4609375 C-311.13608749 51.21910736 -310.42061249 50.97727722 -309.68345642 50.7281189 C-307.33280092 49.93709684 -304.97940907 49.15477559 -302.625 48.375 C-301.81457245 48.10610962 -301.0041449 47.83721924 -300.16915894 47.56018066 C-251.74533294 31.54334838 -202.08446115 22.27812369 -151.5234375 16.1484375 C-150.49013935 16.02232841 -149.4568412 15.89621933 -148.39223099 15.76628876 C-123.57199227 12.74488965 -98.70779884 10.15805443 -73.83575439 7.60540771 C-64.55471573 6.65227659 -55.27437654 5.69239801 -45.99428177 4.73012543 C-42.81357076 4.40123736 -39.63256572 4.07532762 -36.45150757 3.74981689 C-26.9326038 2.76931389 -17.44178811 1.7293231 -7.97109985 0.35345459 C-5.27654661 0.03289915 -2.70950821 -0.06857721 0 0 Z " fill="#FEFEFE" transform="translate(383,545)"/>
<path d="M0 0 C0.33 0 0.66 0 1 0 C5.11422031 17.75713012 3.2434279 37.54492711 3.25 55.6875 C3.25058914 56.4370332 3.25117828 57.18656639 3.25178528 57.95881271 C3.26763878 86.74289891 2.30568105 115.39857802 0.7035675 144.14189148 C0.12919341 154.45502737 -0.38890725 164.7702384 -0.88926315 175.08721733 C-1.14696371 180.37800242 -1.41075586 185.6684862 -1.67494011 190.958951 C-1.88995013 195.26644212 -2.10285755 199.57400972 -2.3104248 203.88186646 C-2.50526336 207.91452655 -2.70905733 211.9466398 -2.9195919 215.9785099 C-2.99593434 217.46874674 -3.06916563 218.9591466 -3.13910866 220.44969749 C-3.23556213 222.49519357 -3.34416045 224.54010619 -3.45336914 226.58496094 C-3.51093887 227.73317322 -3.56850861 228.8813855 -3.62782288 230.06439209 C-3.98171938 232.85580865 -4.5581798 234.61288862 -6 237 C-10.42770925 216.76690503 -14.17277442 196.51927197 -17 176 C-17.16661133 174.84097168 -17.33322266 173.68194336 -17.50488281 172.48779297 C-20.10460653 153.75955555 -20.30950469 135.06587309 -20.375 116.1875 C-20.38294586 114.98723175 -20.39089172 113.7869635 -20.39907837 112.55032349 C-20.48576745 95.49909197 -19.41583984 78.88194316 -17 62 C-16.89776123 61.28494293 -16.79552246 60.56988586 -16.69018555 59.8331604 C-16.15734292 56.22263336 -15.52456197 52.64168909 -14.8125 49.0625 C-14.60890869 48.0216626 -14.40531738 46.9808252 -14.19555664 45.90844727 C-10.99844359 30.32702125 -6.91527095 14.37835421 0 0 Z " fill="#FEFEFE" transform="translate(20,356)"/>
<path d="M0 0 C-0.33 0.66 -0.66 1.32 -1 2 C-4.57342031 2.88981365 -8.27489658 3.18110404 -11.9296875 3.6015625 C-13.05156464 3.732211 -14.17344177 3.8628595 -15.32931519 3.99746704 C-27.59745196 5.32060076 -39.79792326 5.46429664 -52.125 5.375 C-53.85763596 5.36802094 -53.85763596 5.36802094 -55.62527466 5.36090088 C-73.9291698 5.27481684 -91.8579441 4.57716761 -110 2 C-111.45619294 1.79913862 -112.91241152 1.59846314 -114.36865234 1.39794922 C-132.61137554 -1.14383708 -150.68036404 -4.37935075 -168.6875 -8.25 C-169.4951178 -8.42244232 -170.3027356 -8.59488464 -171.13482666 -8.77255249 C-173.40829933 -9.26158463 -175.67914684 -9.76106666 -177.94921875 -10.265625 C-178.95892479 -10.48406822 -178.95892479 -10.48406822 -179.98902893 -10.70692444 C-183.19064317 -11.43505502 -185.22432352 -12.14954902 -188 -14 C-140.00044898 -36.48797863 -47.82312833 -16.79467271 0 0 Z " fill="#FEFEFE" transform="translate(214,635)"/>
</svg>
